#!OML:ASF X:\für Bonn\!DataBase\2005_08_11_Bastian_Final\c3d\Bastian.ASF
:FULLY-SPECIFIED
:DEGREES
155
root -0.0524438 18.0034 -7.70667 127.302 102.766 -593.018
lowerback 4.10683 -2.39295 1.65376
upperback 4.72629 -3.07952 2.1304
thorax 2.59447 -1.48039 1.32206
lowerneck -13.8471 1.25181 -6.74309
upperneck 1.60437 2.59395 4.45448
head 2.85181 1.43412 2.88399
rclavicle -2.38542e-014 1.19271e-014
rhumerus -60.9312 3.81911 -80.5499
rradius 35.4508
rwrist 2.32943
rhand -19.3129 14.5323
rfingers 7.12502
rthumb 7.00311 -15.3319
lclavicle -2.38542e-014 1.19271e-014
lhumerus -32.9757 -36.0602 104.968
lradius 104.013
lwrist 27.938
lhand 5.70075 -17.3962
lfingers 7.12502
lthumb 31.0381 9.99795
rfemur -34.8739 -4.76347 22.4438
rtibia 62.0833
rfoot -21.9329 -5.47831
rtoes -16.9765
lfemur 10.5967 -4.25684 -19.9635
ltibia 33.9485
lfoot 5.61908 -7.40946
ltoes -17.5241
156
root 0.236043 18.0853 -7.62615 126.449 102.705 -593.927
lowerback 3.85035 -2.45303 1.86943
upperback 4.64266 -3.16586 2.20926
thorax 2.6454 -1.51912 1.27508
lowerneck -13.7921 1.33158 -6.87419
upperneck 1.77171 2.7197 4.31694
head 2.89083 1.48531 2.87122
rclavicle 1.98785e-014 8.74653e-015
rhumerus -61.7346 3.58429 -80.2561
rradius 36.199
rwrist 2.39121
rhand -18.981 14.8291
rfingers 7.12502
rthumb 7.32347 -15.0242
lclavicle 1.98785e-014 8.74653e-015
lhumerus -33.0382 -36.161 104.942
lradius 104.87
lwrist 27.9114
lhand 6.13916 -16.8847
lfingers 7.12502
lthumb 31.4559 10.4289
rfemur -34.0919 -4.44306 22.5117
rtibia 58.6108
rfoot -21.8428 -5.56066
rtoes -17.9712
lfemur 10.5178 -4.02044 -19.8316
ltibia 35.2592
lfoot 6.53257 -6.25728
ltoes -19.4199
157
root 0.526794 18.1572 -7.54546 125.521 102.645 -594.866
lowerback 3.57754 -2.51675 2.06962
upperback 4.61751 -3.25919 2.29562
thorax 2.76736 -1.56057 1.24208
lowerneck -13.7766 1.40987 -7.03762
upperneck 1.90226 2.85229 4.20127
head 2.92392 1.54151 2.87276
rclavicle -3.63776e-014 6.04305e-014
rhumerus -62.5524 3.46501 -80.0502
rradius 37.1303
rwrist 2.43153
rhand -18.7548 14.9488
rfingers 7.12502
rthumb 7.5418 -14.8968
lclavicle -3.63776e-014 6.04305e-014
lhumerus -33.0057 -36.2481 104.814
lradius 105.596
lwrist 27.8207
lhand 6.47726 -16.3609
lfingers 7.12502
lthumb 31.778 10.8894
rfemur -33.2057 -4.15522 22.5698
rtibia 55.1581
rfoot -21.8603 -5.50927
rtoes -19.1114
lfemur 10.3859 -3.67379 -19.6518
ltibia 36.8082
lfoot 6.85255 -5.12994
ltoes -20.1265
158
root 0.816979 18.2182 -7.46431 124.547 102.581 -595.866
lowerback 3.31404 -2.57812 2.2618
upperback 4.56749 -3.35026 2.38237
thorax 2.85857 -1.60145 1.21437
lowerneck -13.7041 1.48641 -7.18002
upperneck 2.01608 2.977 4.0589
head 2.94114 1.59247 2.85849
rclavicle -2.31584e-014 6.36111e-015
rhumerus -63.4981 3.36174 -79.8474
rradius 38.2367
rwrist 2.50836
rhand -18.5839 15.0242
rfingers 7.12502
rthumb 7.70675 -14.8153
lclavicle -2.31584e-014 6.36111e-015
lhumerus -33.0683 -36.2986 104.721
lradius 106.097
lwrist 27.6293
lhand 6.61558 -16.0446
lfingers 7.12502
lthumb 31.9097 11.1794
rfemur -32.2936 -3.79784 22.6046
rtibia 51.7447
rfoot -21.9638 -5.41069
rtoes -20.477
lfemur 10.153 -3.26129 -19.4376
ltibia 38.546
lfoot 6.74944 -4.02068
ltoes -20.1618
159
root 1.10727 18.2665 -7.38125 123.618 102.505 -596.78
lowerback 3.06638 -2.64378 2.38725
upperback 4.54255 -3.44849 2.46906
thorax 2.97068 -1.6474 1.22342
lowerneck -13.5911 1.58572 -7.2982
upperneck 2.08057 3.12821 3.88124
head 2.93225 1.65607 2.82648
rclavicle -1.27222e-014 -1.03368e-014
rhumerus -64.511 3.33704 -79.6814
rradius 39.5278
rwrist 2.67237
rhand -18.5415 15.0069
rfingers 7.12502
rthumb 7.74771 -14.8311
lclavicle -1.27222e-014 -1.03368e-014
lhumerus -33.1417 -36.2858 104.599
lradius 106.382
lwrist 27.4592
lhand 6.57387 -15.9951
lfingers 7.12502
lthumb 31.87 11.2368
rfemur -31.3091 -3.3589 22.5939
rtibia 48.4105
rfoot -21.9935 -5.30517
rtoes -21.5274
lfemur 9.9076 -2.80558 -19.2263
ltibia 40.4103
lfoot 6.35731 -2.83217
ltoes -19.5991
160
root 1.39814 18.3028 -7.2969 122.603 102.404 -597.736
lowerback 2.86781 -2.71044 2.47151
upperback 4.5323 -3.54676 2.54501
thorax 3.07223 -1.69423 1.24579
lowerneck -13.5039 1.69736 -7.34175
upperneck 2.16452 3.28612 3.68936
head 2.93545 1.7231 2.77711
rclavicle 3.30976e-014 -2.06736e-014
rhumerus -65.5341 3.24637 -79.4537
rradius 40.9151
rwrist 2.9089
rhand -18.5673 15.0036
rfingers 7.12502
rthumb 7.72283 -14.8353
lclavicle 3.30976e-014 -2.06736e-014
lhumerus -33.2468 -36.2766 104.467
lradius 106.439
lwrist 27.2742
lhand 6.3309 -16.2387
lfingers 7.12502
lthumb 31.6386 11.0391
rfemur -30.2549 -2.84302 22.5289
rtibia 45.1753
rfoot -22.0838 -5.28669
rtoes -22.399
lfemur 9.66496 -2.39274 -19.0503
ltibia 42.3866
lfoot 5.71845 -1.51665
ltoes -18.8421
161
root 1.68805 18.3277 -7.21161 121.529 102.28 -598.703
lowerback 2.72243 -2.78397 2.55187
upperback 4.54049 -3.65173 2.57535
thorax 3.16029 -1.74362 1.22522
lowerneck -13.3401 1.83973 -7.21428
upperneck 2.17826 3.45655 3.42687
head 2.90156 1.79652 2.66805
rclavicle 1.63003e-014 1.66979e-014
rhumerus -66.5352 3.06489 -79.2194
rradius 42.3478
rwrist 3.29554
rhand -18.6751 15.0025
rfingers 7.12502
rthumb 7.61877 -14.8403
lclavicle 1.63003e-014 1.66979e-014
lhumerus -33.4156 -36.2578 104.285
lradius 106.323
lwrist 27.0883
lhand 5.92934 -16.6702
lfingers 7.12502
lthumb 31.256 10.6822
rfemur -29.1421 -2.28465 22.4277
rtibia 42.0837
rfoot -22.3255 -5.38993
rtoes -23.26
lfemur 9.39972 -2.02857 -18.8956
ltibia 44.4508
lfoot 4.89519 -0.136288
ltoes -17.7823
162
root 1.97794 18.3414 -7.12589 120.259 102.173 -599.826
lowerback 2.64596 -2.86215 2.63274
upperback 4.54834 -3.75952 2.63504
thorax 3.21124 -1.7948 1.23776
lowerneck -13.1523 1.99331 -7.1203
upperneck 2.17757 3.64616 3.1611
head 2.85755 1.87937 2.56447
rclavicle -8.05078e-015 4.77083e-015
rhumerus -67.5099 2.88408 -78.8854
rradius 43.8321
rwrist 3.66384
rhand -18.7279 15.038
rfingers 7.12502
rthumb 7.56776 -14.8067
lclavicle -8.05078e-015 4.77083e-015
lhumerus -33.6273 -36.1519 104.179
lradius 106.043
lwrist 26.8677
lhand 5.4583 -17.2279
lfingers 7.12502
lthumb 30.807 10.2102
rfemur -27.9794 -1.71107 22.3443
rtibia 39.1626
rfoot -22.7223 -5.56458
rtoes -23.2477
lfemur 9.11411 -1.74026 -18.7308
ltibia 46.5871
lfoot 4.06822 1.34281
ltoes -15.5806
163
root 2.26751 18.3431 -7.03838 118.875 102.034 -601.046
lowerback 2.5914 -2.95682 2.67046
upperback 4.56769 -3.88873 2.68831
thorax 3.26423 -1.85785 1.26825
lowerneck -13.0013 2.13266 -7.17275
upperneck 2.17168 3.8386 2.97515
head 2.81681 1.96591 2.51659
rclavicle 5.46658e-014 -2.94201e-014
rhumerus -68.5051 2.70817 -78.5343
rradius 45.4557
rwrist 4.04179
rhand -18.8033 15.0992
rfingers 7.12502
rthumb 7.495 -14.748
lclavicle 5.46658e-014 -2.94201e-014
lhumerus -33.8689 -35.9875 104.076
lradius 105.621
lwrist 26.6752
lhand 4.91567 -17.8073
lfingers 7.12502
lthumb 30.2895 9.72714
rfemur -26.8012 -1.12678 22.2328
rtibia 36.4658
rfoot -23.2131 -5.83448
rtoes -23.357
lfemur 8.79226 -1.51792 -18.5847
ltibia 48.7845
lfoot 3.43998 2.79187
ltoes -12.4833
164
root 2.55615 18.3297 -6.95073 117.453 101.931 -602.278
lowerback 2.57327 -3.04238 2.73866
upperback 4.59776 -4.00357 2.73552
thorax 3.30545 -1.91236 1.27722
lowerneck -12.8638 2.26858 -7.24179
upperneck 2.17118 4.02789 2.82249
head 2.78041 2.0522 2.48335
rclavicle 3.18055e-014 -1.11319e-014
rhumerus -69.5359 2.55143 -78.2156
rradius 47.2226
rwrist 4.29775
rhand -18.8573 15.176
rfingers 7.12502
rthumb 7.44286 -14.673
lclavicle 3.18055e-014 -1.11319e-014
lhumerus -34.1555 -35.7745 103.983
lradius 105.123
lwrist 26.4652
lhand 4.39383 -18.2663
lfingers 7.12502
lthumb 29.7916 9.35849
rfemur -25.614 -0.411792 22.1277
rtibia 34.024
rfoot -23.7744 -6.2163
rtoes -23.5729
lfemur 8.47018 -1.32407 -18.4232
ltibia 51.0245
lfoot 3.08492 4.18588
ltoes -9.46088
165
root 2.84238 18.3046 -6.86346 115.925 101.797 -603.616
lowerback 2.58418 -3.13053 2.77982
upperback 4.62629 -4.12035 2.77856
thorax 3.33023 -1.96882 1.29846
lowerneck -12.699 2.40743 -7.27965
upperneck 2.1225 4.21574 2.64342
head 2.72344 2.13842 2.43298
rclavicle -7.58364e-014 5.00937e-014
rhumerus -70.474 2.35116 -77.8371
rradius 49.0224
rwrist 4.50944
rhand -18.8134 15.2494
rfingers 7.12502
rthumb 7.48524 -14.5982
lclavicle -7.58364e-014 5.00937e-014
lhumerus -34.4129 -35.4791 103.901
lradius 104.576
lwrist 26.2036
lhand 3.99208 -18.4378
lfingers 7.12502
lthumb 29.4081 9.255
rfemur -24.4561 0.324437 21.9962
rtibia 31.8688
rfoot -24.3797 -6.65513
rtoes -24.0043
lfemur 8.05993 -1.15477 -18.3001
ltibia 53.2983
lfoot 2.98683 5.37249
ltoes -8.05877
